<svg width="350" height="350" viewBox="0 0 350 350" fill="none" xmlns="http://www.w3.org/2000/svg">
<rect x="25" y="25" width="300" height="300" rx="65" fill="white"/>
<rect x="80" y="228" width="128.312" height="18" rx="9" fill="black"/>
<path d="M240.77 242.65V237.2L257.27 215H265.77L249.62 237.2L245.67 236.05H273.22V242.65H240.77ZM259.62 250V242.65L259.87 236.05V229.5H267.52V250H259.62Z" fill="black"/>
<path d="M260.12 131.72C256.28 131.72 252.94 130.92 250.1 129.32C247.3 127.72 245.14 125.38 243.62 122.3C242.1 119.22 241.34 115.42 241.34 110.9C241.34 106.06 242.24 101.96 244.04 98.6C245.88 95.24 248.4 92.68 251.6 90.92C254.84 89.16 258.56 88.28 262.76 88.28C265 88.28 267.14 88.52 269.18 89C271.22 89.48 272.98 90.2 274.46 91.16L270.86 98.3C269.7 97.5 268.46 96.96 267.14 96.68C265.82 96.36 264.44 96.2 263 96.2C259.36 96.2 256.48 97.3 254.36 99.5C252.24 101.7 251.18 104.96 251.18 109.28C251.18 110 251.18 110.8 251.18 111.68C251.22 112.56 251.34 113.44 251.54 114.32L248.84 111.8C249.6 110.24 250.58 108.94 251.78 107.9C252.98 106.82 254.4 106.02 256.04 105.5C257.72 104.94 259.56 104.66 261.56 104.66C264.28 104.66 266.72 105.2 268.88 106.28C271.04 107.36 272.76 108.88 274.04 110.84C275.36 112.8 276.02 115.1 276.02 117.74C276.02 120.58 275.3 123.06 273.86 125.18C272.46 127.26 270.56 128.88 268.16 130.04C265.8 131.16 263.12 131.72 260.12 131.72ZM259.58 124.46C260.94 124.46 262.14 124.22 263.18 123.74C264.26 123.22 265.1 122.48 265.7 121.52C266.3 120.56 266.6 119.46 266.6 118.22C266.6 116.3 265.94 114.78 264.62 113.66C263.34 112.5 261.62 111.92 259.46 111.92C258.02 111.92 256.76 112.2 255.68 112.76C254.6 113.28 253.74 114.02 253.1 114.98C252.5 115.9 252.2 116.98 252.2 118.22C252.2 119.42 252.5 120.5 253.1 121.46C253.7 122.38 254.54 123.12 255.62 123.68C256.7 124.2 258.02 124.46 259.58 124.46Z" fill="black"/>
<path d="M89.81 127.54C87.38 127.54 85.115 127.15 83.015 126.37C80.945 125.56 79.145 124.42 77.615 122.95C76.085 121.48 74.885 119.755 74.015 117.775C73.175 115.795 72.755 113.62 72.755 111.25C72.755 108.88 73.175 106.705 74.015 104.725C74.885 102.745 76.085 101.02 77.615 99.55C79.175 98.08 80.99 96.955 83.06 96.175C85.13 95.365 87.395 94.96 89.855 94.96C92.585 94.96 95.045 95.44 97.235 96.4C99.455 97.33 101.315 98.71 102.815 100.54L98.135 104.86C97.055 103.63 95.855 102.715 94.535 102.115C93.215 101.485 91.775 101.17 90.215 101.17C88.745 101.17 87.395 101.41 86.165 101.89C84.935 102.37 83.87 103.06 82.97 103.96C82.07 104.86 81.365 105.925 80.855 107.155C80.375 108.385 80.135 109.75 80.135 111.25C80.135 112.75 80.375 114.115 80.855 115.345C81.365 116.575 82.07 117.64 82.97 118.54C83.87 119.44 84.935 120.13 86.165 120.61C87.395 121.09 88.745 121.33 90.215 121.33C91.775 121.33 93.215 121.03 94.535 120.43C95.855 119.8 97.055 118.855 98.135 117.595L102.815 121.915C101.315 123.745 99.455 125.14 97.235 126.1C95.045 127.06 92.57 127.54 89.81 127.54ZM117.912 127.54C115.392 127.54 112.977 127.21 110.667 126.55C108.357 125.86 106.497 124.975 105.087 123.895L107.562 118.405C108.912 119.365 110.502 120.16 112.332 120.79C114.192 121.39 116.067 121.69 117.957 121.69C119.397 121.69 120.552 121.555 121.422 121.285C122.322 120.985 122.982 120.58 123.402 120.07C123.822 119.56 124.032 118.975 124.032 118.315C124.032 117.475 123.702 116.815 123.042 116.335C122.382 115.825 121.512 115.42 120.432 115.12C119.352 114.79 118.152 114.49 116.832 114.22C115.542 113.92 114.237 113.56 112.917 113.14C111.627 112.72 110.442 112.18 109.362 111.52C108.282 110.86 107.397 109.99 106.707 108.91C106.047 107.83 105.717 106.45 105.717 104.77C105.717 102.97 106.197 101.335 107.157 99.865C108.147 98.365 109.617 97.18 111.567 96.31C113.547 95.41 116.022 94.96 118.992 94.96C120.972 94.96 122.922 95.2 124.842 95.68C126.762 96.13 128.457 96.82 129.927 97.75L127.677 103.285C126.207 102.445 124.737 101.83 123.267 101.44C121.797 101.02 120.357 100.81 118.947 100.81C117.537 100.81 116.382 100.975 115.482 101.305C114.582 101.635 113.937 102.07 113.547 102.61C113.157 103.12 112.962 103.72 112.962 104.41C112.962 105.22 113.292 105.88 113.952 106.39C114.612 106.87 115.482 107.26 116.562 107.56C117.642 107.86 118.827 108.16 120.117 108.46C121.437 108.76 122.742 109.105 124.032 109.495C125.352 109.885 126.552 110.41 127.632 111.07C128.712 111.73 129.582 112.6 130.242 113.68C130.932 114.76 131.277 116.125 131.277 117.775C131.277 119.545 130.782 121.165 129.792 122.635C128.802 124.105 127.317 125.29 125.337 126.19C123.387 127.09 120.912 127.54 117.912 127.54ZM151.883 127V98.2L155.033 101.35H145.583V95.5H159.173V127H151.883ZM178.145 127.54C175.565 127.54 173.255 126.91 171.215 125.65C169.175 124.36 167.57 122.5 166.4 120.07C165.23 117.64 164.645 114.7 164.645 111.25C164.645 107.8 165.23 104.86 166.4 102.43C167.57 100 169.175 98.155 171.215 96.895C173.255 95.605 175.565 94.96 178.145 94.96C180.755 94.96 183.065 95.605 185.075 96.895C187.115 98.155 188.72 100 189.89 102.43C191.06 104.86 191.645 107.8 191.645 111.25C191.645 114.7 191.06 117.64 189.89 120.07C188.72 122.5 187.115 124.36 185.075 125.65C183.065 126.91 180.755 127.54 178.145 127.54ZM178.145 121.375C179.375 121.375 180.44 121.03 181.34 120.34C182.27 119.65 182.99 118.555 183.5 117.055C184.04 115.555 184.31 113.62 184.31 111.25C184.31 108.88 184.04 106.945 183.5 105.445C182.99 103.945 182.27 102.85 181.34 102.16C180.44 101.47 179.375 101.125 178.145 101.125C176.945 101.125 175.88 101.47 174.95 102.16C174.05 102.85 173.33 103.945 172.79 105.445C172.28 106.945 172.025 108.88 172.025 111.25C172.025 113.62 172.28 115.555 172.79 117.055C173.33 118.555 174.05 119.65 174.95 120.34C175.88 121.03 176.945 121.375 178.145 121.375ZM199.871 127V98.2L203.021 101.35H193.571V95.5H207.161V127H199.871Z" fill="black"/>
<rect x="80" y="183" width="130.835" height="18" rx="9" fill="black"/>
<path d="M244 204V198.75L257.5 186C258.567 185.033 259.35 184.167 259.85 183.4C260.35 182.633 260.683 181.933 260.85 181.3C261.05 180.667 261.15 180.083 261.15 179.55C261.15 178.15 260.667 177.083 259.7 176.35C258.767 175.583 257.383 175.2 255.55 175.2C254.083 175.2 252.717 175.483 251.45 176.05C250.217 176.617 249.167 177.5 248.3 178.7L242.4 174.9C243.733 172.9 245.6 171.317 248 170.15C250.4 168.983 253.167 168.4 256.3 168.4C258.9 168.4 261.167 168.833 263.1 169.7C265.067 170.533 266.583 171.717 267.65 173.25C268.75 174.783 269.3 176.617 269.3 178.75C269.3 179.883 269.15 181.017 268.85 182.15C268.583 183.25 268.017 184.417 267.15 185.65C266.317 186.883 265.083 188.267 263.45 189.8L252.25 200.35L250.7 197.4H270.45V204H244Z" fill="black"/>
</svg>
